<?xml version="1.0" encoding="UTF-8" standalone="no" ?>
<!DOCTYPE svg PUBLIC "-//W3C//DTD SVG 1.1//EN" "http://www.w3.org/Graphics/SVG/1.1/DTD/svg11.dtd">
<svg xmlns="http://www.w3.org/2000/svg" xmlns:xlink="http://www.w3.org/1999/xlink" version="1.1" width="1280" height="1280" viewBox="0 0 1280 1280" xml:space="preserve">
<desc>Created with Fabric.js 5.3.0</desc>
<defs>
</defs>
<g transform="matrix(1 0 0 1 640 640)" id="l8nCOe6lRnpbbMxPYMDc0"  >
<path style="stroke:white;stroke-width: 0; stroke-dasharray: none; stroke-linecap: butt; stroke-dashoffset: 0; stroke-linejoin: miter; stroke-miterlimit: 4; stroke: white;fill-rule: nonzero; opacity: 1;filter: url(#SVGID_0);"  transform=" translate(-454.6798356457, -587.4877960841)" d="M 472.68355 901.96574 C 469.11411000000004 901.96574 466.20051 899.11036 466.12846 895.54165 C 465.49276000000003 864.05126 465.06316000000004 844.69749 466.25814 800.09686 C 467.53356 752.49434 481.00632 709.41045 501.40676 666.48524 C 521.8072 623.56003 536.02558 601.6854599999999 536.02558 601.6854599999999 L 568.34976 620.2901099999999 C 568.34976 620.2901099999999 549.36523 652.27114 531.5705099999999 685.3100599999999 C 513.7757899999999 718.3489799999999 498.3431299999999 757.3306599999999 498.3543199999999 821.0848599999999 C 498.3655099999999 884.8390599999999 498.3543199999999 901.96574 498.3543199999999 901.96574 z M 400.82288 902.29029 C 400.82288 902.29029 400.81169 885.1636100000001 400.82288 821.40941 C 400.83407 757.65521 385.40141 718.67353 367.60669 685.63461 C 349.81197000000003 652.59569 330.82744 620.61466 330.82744 620.61466 L 363.15162000000004 602.01001 C 363.15162000000004 602.01001 377.37000000000006 623.8845799999999 397.77044 666.80979 C 418.17088 709.735 431.64364 752.81889 432.91906 800.42141 C 434.10499 844.6839200000001 433.68628 863.8908 433.06187 895.14259 C 432.98254 899.1130400000001 429.74118 902.29029 425.76993 902.29029 z M 289.47756 872.36044 C 271.45927 848.81082 277.29897 817.08195 272.6463 792.52539 C 268.0198 768.1069 246.47213 714.2576 186.10757999999998 660.66058 C 191.12501999999998 660.55535 196.24337999999997 660.24374 201.46114999999998 659.70475 C 216.30462999999997 658.17141 230.21302999999997 655.47208 243.32551999999998 651.84627 C 267.83741 684.7497 292.91192 713.77277 305.11451999999997 750.26924 C 317.95162999999997 788.6633899999999 312.94327999999996 812.06688 318.68472999999994 835.86815 C 324.42616999999996 859.6694200000001 373.01937999999996 861.20302 373.01937999999996 861.20302 L 375.66405 861.20302 L 375.66405 901.9657400000001 C 371.56291 901.89808 368.2124 901.8330100000001 365.78997999999996 901.7742000000001 C 341.86076999999995 901.1934200000001 307.49583999999993 895.9100400000001 289.4775599999999 872.3604100000001 z M 713.51918 659.75143 C 663.78224 705.7423200000001 633.13069 755.1778800000001 629.09133 783.21451 C 625.0519499999999 811.25114 633.9928699999999 836.7065200000001 614.58474 867.2169200000001 C 595.17659 897.7273200000001 572.20101 899.9988900000001 538.20639 901.77422 C 534.13664 901.98676 528.9131500000001 902.1567200000001 522.82946 902.29029 L 522.82946 861.20303 L 525.15839 861.20303 C 525.15839 861.20303 570.63837 861.24836 580.15245 838.57055 C 589.6665300000001 815.8927600000001 581.68308 784.2012100000001 594.6721 750.26926 C 607.66112 716.33731 614.72586 707.9649000000001 654.28885 652.02696 C 655.47361 650.3518300000001 656.68244 648.69538 657.9135 647.0550900000001 C 676.03487 653.1202900000001 694.97087 657.4178700000001 714.20028 659.12097 C 713.9735400000001 659.3310600000001 713.7465100000001 659.5412 713.51915 659.75143 z M 301.6857 944.52484 C 301.55102999999997 933.50266 310.37711 924.45826 321.39927 924.3235900000001 L 580.98852 921.15195 C 591.53903 921.02304 600.1964 929.47143 600.32531 940.0219300000001 L 600.36929 943.6217700000001 C 600.4985399999999 954.2002000000001 592.0278 962.8805000000001 581.44936 963.0097400000001 L 323.85302999999993 966.1570300000001 C 311.75812999999994 966.3048000000001 301.83347999999995 956.6197400000001 301.6857099999999 944.52484 z M 301.1498 1008.28913 C 301.01513 997.26695 309.84121000000005 988.22255 320.86337000000003 988.08788 L 580.45262 984.91624 C 591.00313 984.78733 599.6605000000001 993.23572 599.78941 1003.7862200000001 L 599.83339 1007.38606 C 599.96264 1017.9644900000001 591.4919 1026.64479 580.91346 1026.77403 L 323.31712999999996 1029.9213200000002 C 311.22222999999997 1030.0690900000002 301.29758 1020.3840300000002 301.14980999999995 1008.2891300000001 z M 314.74468 1072.5458 C 314.61001 1061.5236200000002 323.43609000000004 1052.4792200000002 334.45825 1052.34455 L 567.92952 1049.4920200000001 C 578.48003 1049.3631100000002 587.1374000000001 1057.8115000000003 587.26631 1068.362 L 587.31029 1071.9618400000002 C 587.43954 1082.5402700000002 578.9688 1091.2205700000002 568.39036 1091.3498100000002 L 336.91198999999995 1094.1779900000001 C 324.81708999999995 1094.3257600000002 314.89243999999997 1084.6407000000002 314.7446699999999 1072.5458 z M 450.4867 1174.97559 C 411.82356 1174.97559 378.9846 1149.88686 367.37269 1115.11226 L 533.6007099999999 1115.11226 C 521.9888 1149.8868400000001 489.1498399999999 1174.97559 450.4866999999999 1174.97559 z M 370.42777 446.31526 L 437.42976 500.85933 C 437.42976 500.85933 392.1411 541.06181 354.07934 567.30177 C 316.0176 593.5417100000001 272.05297 617.50244 211.95002 623.15193 C 151.84707 628.80144 105.62831 605.54903 75.88744 585.84018 C 46.14655 566.13131 20.97229 528.02283 9.301469999999995 494.38317000000006 C -2.369350000000006 460.7435100000001 -2.5976800000000058 426.75495000000006 6.048599999999995 388.35747000000003 C 14.694869999999995 349.95999000000006 40.993269999999995 313.16476 75.88741999999999 283.99701000000005 C 110.78156999999999 254.82926000000003 155.81261 246.77151000000003 186.93412 243.96936000000005 C 218.05564 241.16721000000004 256.07801 244.61934000000005 311.31731 273.96790000000004 C 366.55661000000003 303.31644000000006 384.90119000000004 322.4588600000001 459.87051 382.59366000000006 C 534.83982 442.72848000000005 602.73641 497.86657 650.73306 521.07591 C 698.7297100000001 544.28525 739.09126 539.29503 771.69014 519.07745 C 804.28902 498.85987 815.7990500000001 465.55216 817.4293 436.38707999999997 C 819.05956 407.22200999999995 805.8863 376.64639999999997 782.7965 358.12219999999996 C 759.70671 339.59799999999996 733.3812800000001 330.84650999999997 695.4405300000001 332.66067999999996 C 657.4997800000001 334.47486 634.4983100000001 351.76965999999993 603.53061 372.26340999999996 C 572.5629200000001 392.75713999999994 539.6557 422.13971999999995 539.6557 422.13971999999995 L 473.41074000000003 369.03425999999996 C 473.41074000000003 369.03425999999996 515.26882 328.11395999999996 560.76671 298.46948 C 606.26462 268.82500999999996 651.91241 245.51031999999998 711.72128 243.96935999999997 C 771.5301499999999 242.42839999999995 822.7087799999999 270.90738 856.32112 303.56179999999995 C 889.9334799999999 336.21621999999996 905.0178 368.7505699999999 908.5908199999999 418.6735299999999 C 912.1638599999999 468.5965099999999 903.4959099999999 495.2774999999999 878.1224299999999 538.8981099999999 C 852.74894 582.5187199999998 812.7989999999999 607.4107699999998 755.0018899999999 619.4509599999999 C 697.2047799999999 631.4911599999999 637.1796699999999 613.99768 590.4686199999999 589.4039199999999 C 543.7575799999998 564.8101499999999 522.7310599999998 540.8566799999999 470.5947899999999 500.85931999999985 C 418.45851999999985 460.86195999999984 385.8275299999999 428.04283999999984 332.1751499999999 388.35746999999986 C 278.52278999999993 348.6720999999999 260.3582499999999 335.94370999999984 200.60505999999992 332.66067999999984 C 140.85184999999993 329.37762999999984 98.99162999999993 371.71975999999984 94.10097999999992 424.9398899999999 C 89.21032999999993 478.1600299999999 121.06958999999992 516.3387299999999 167.90135999999993 530.5330299999998 C 214.7331499999999 544.7273299999998 250.50814999999994 529.9738599999998 285.6520099999999 509.3884199999998 C 320.79588999999993 488.80296999999985 370.4276799999999 446.3152499999998 370.4276799999999 446.3152499999998 z M 24.23997 473.84647 C 20.48967 455.82178 18.274839999999998 444.18359 17.06105 444.15792 C 15.674960000000002 444.12861 7.704510000000001 488.25464 52.94711 546.93485 C 98.1897 605.61506 177.94072 604.18382 177.94072 604.18382 L 176.66852 596.8686799999999 C 176.66852 596.8686799999999 160.82454 594.4549099999999 146.75164 591.5012199999999 C 132.67872 588.5475299999998 103.50244 576.7780599999999 83.61232000000001 561.5664299999999 C 46.59044000000001 533.2527299999998 27.990300000000012 491.8711299999999 24.23998000000001 473.84645999999987 z M 506.71727 99.44027 C 502.75663 96.24959 501.17883 91.89241 501.56012999999996 88.80467999999999 C 501.94141999999994 85.71695 504.15165999999994 81.28961 508.43309999999997 79.65410999999999 C 512.71453 78.01861 522.96667 77.70759999999999 547.6642899999999 85.31303999999999 C 572.36191 92.91847999999999 582.2978199999999 97.30577999999998 610.0832899999999 112.93556999999998 C 637.86876 128.56536 642.3712199999999 133.12552 658.8061799999999 147.83218999999997 C 675.24114 162.53885999999997 674.73961 166.50229999999996 674.86988 169.66513999999998 C 675.0001599999999 172.82797999999997 674.0621699999999 175.66024 671.52872 178.02312999999998 C 668.99527 180.38600999999997 664.40715 181.82577999999998 660.35118 181.21380999999997 C 656.29522 180.60182999999998 647.10703 171.76226999999997 647.10703 171.76226999999997 C 647.10703 171.76226999999997 631.94191 154.75549999999998 606.54944 139.33389999999997 C 581.15697 123.91229999999997 564.08869 116.59015999999997 545.53716 110.07586999999997 C 526.98564 103.56156999999996 510.67789999999997 102.63095999999996 506.71725999999995 99.44027999999997 z M 111.04936 199.81103 C 130.07846999999998 168.44876 149.62809 124.78733999999999 216.68565 74.84106999999999 C 283.7432 24.89479999999999 371.91732 0.889649999999989 451.78922 0.02592999999998824 C 531.66112 -0.8378100000000117 605.25784 19.79280999999999 679.91021 74.84106999999999 C 754.56258 129.88932999999997 776.65525 172.86908 791.83277 199.81103 C 795.94814 207.11632 802.41742 220.44099 809.10372 238.33522 C 792.0754 230.46878999999998 773.6211699999999 224.7921 754.0641899999999 222.33231999999998 C 740.48367 197.79598 720.4124499999999 159.03270999999998 654.2888499999999 109.53496999999999 C 587.44364 59.49704999999999 521.5436699999999 40.74418999999999 450.0247799999999 41.52928999999999 C 378.5058899999999 42.31439999999999 299.5530399999999 64.13466999999999 239.5083799999999 109.53496999999999 C 179.4636999999999 154.93527999999998 161.9585899999999 194.62275 144.9195399999999 223.13053 C 144.4053399999999 223.99084 143.8697699999999 224.91281999999998 143.3152499999999 225.89489 C 126.2469699999999 229.53757000000002 107.8006899999999 235.35345 90.07348999999991 244.86199 C 97.67441999999991 224.53553 105.48269999999991 208.98552999999998 111.04933999999992 199.81104 z" stroke-linecap="round" />
<filter id="SVGID_0" y="-26.8086521%" height="153.6173042%" x="-28.797399130000002%" width="157.59479826%" >
	<feGaussianBlur in="SourceAlpha" stdDeviation="40"></feGaussianBlur>
	<feOffset dx="0" dy="0" result="oBlur" ></feOffset>
	<feFlood flood-color="rgb(242,192,2)" flood-opacity="0.5"/>
	<feComposite in2="oBlur" operator="in" />
	<feMerge>
		<feMergeNode></feMergeNode>
		<feMergeNode in="SourceGraphic"></feMergeNode>
	</feMerge>
</filter>
<path style="stroke: rgb(50,233,171); stroke-width: 0; stroke-dasharray: none; stroke-linecap: butt; stroke-dashoffset: 0; stroke-linejoin: miter; stroke-miterlimit: 4; fill: rgb(242,192,2); fill-rule: nonzero; opacity: 1;"  transform=" translate(-454.6798356457, -587.4877960841)" d="M 472.68355 901.96574 C 469.11411000000004 901.96574 466.20051 899.11036 466.12846 895.54165 C 465.49276000000003 864.05126 465.06316000000004 844.69749 466.25814 800.09686 C 467.53356 752.49434 481.00632 709.41045 501.40676 666.48524 C 521.8072 623.56003 536.02558 601.6854599999999 536.02558 601.6854599999999 L 568.34976 620.2901099999999 C 568.34976 620.2901099999999 549.36523 652.27114 531.5705099999999 685.3100599999999 C 513.7757899999999 718.3489799999999 498.3431299999999 757.3306599999999 498.3543199999999 821.0848599999999 C 498.3655099999999 884.8390599999999 498.3543199999999 901.96574 498.3543199999999 901.96574 z M 400.82288 902.29029 C 400.82288 902.29029 400.81169 885.1636100000001 400.82288 821.40941 C 400.83407 757.65521 385.40141 718.67353 367.60669 685.63461 C 349.81197000000003 652.59569 330.82744 620.61466 330.82744 620.61466 L 363.15162000000004 602.01001 C 363.15162000000004 602.01001 377.37000000000006 623.8845799999999 397.77044 666.80979 C 418.17088 709.735 431.64364 752.81889 432.91906 800.42141 C 434.10499 844.6839200000001 433.68628 863.8908 433.06187 895.14259 C 432.98254 899.1130400000001 429.74118 902.29029 425.76993 902.29029 z M 289.47756 872.36044 C 271.45927 848.81082 277.29897 817.08195 272.6463 792.52539 C 268.0198 768.1069 246.47213 714.2576 186.10757999999998 660.66058 C 191.12501999999998 660.55535 196.24337999999997 660.24374 201.46114999999998 659.70475 C 216.30462999999997 658.17141 230.21302999999997 655.47208 243.32551999999998 651.84627 C 267.83741 684.7497 292.91192 713.77277 305.11451999999997 750.26924 C 317.95162999999997 788.6633899999999 312.94327999999996 812.06688 318.68472999999994 835.86815 C 324.42616999999996 859.6694200000001 373.01937999999996 861.20302 373.01937999999996 861.20302 L 375.66405 861.20302 L 375.66405 901.9657400000001 C 371.56291 901.89808 368.2124 901.8330100000001 365.78997999999996 901.7742000000001 C 341.86076999999995 901.1934200000001 307.49583999999993 895.9100400000001 289.4775599999999 872.3604100000001 z M 713.51918 659.75143 C 663.78224 705.7423200000001 633.13069 755.1778800000001 629.09133 783.21451 C 625.0519499999999 811.25114 633.9928699999999 836.7065200000001 614.58474 867.2169200000001 C 595.17659 897.7273200000001 572.20101 899.9988900000001 538.20639 901.77422 C 534.13664 901.98676 528.9131500000001 902.1567200000001 522.82946 902.29029 L 522.82946 861.20303 L 525.15839 861.20303 C 525.15839 861.20303 570.63837 861.24836 580.15245 838.57055 C 589.6665300000001 815.8927600000001 581.68308 784.2012100000001 594.6721 750.26926 C 607.66112 716.33731 614.72586 707.9649000000001 654.28885 652.02696 C 655.47361 650.3518300000001 656.68244 648.69538 657.9135 647.0550900000001 C 676.03487 653.1202900000001 694.97087 657.4178700000001 714.20028 659.12097 C 713.9735400000001 659.3310600000001 713.7465100000001 659.5412 713.51915 659.75143 z M 301.6857 944.52484 C 301.55102999999997 933.50266 310.37711 924.45826 321.39927 924.3235900000001 L 580.98852 921.15195 C 591.53903 921.02304 600.1964 929.47143 600.32531 940.0219300000001 L 600.36929 943.6217700000001 C 600.4985399999999 954.2002000000001 592.0278 962.8805000000001 581.44936 963.0097400000001 L 323.85302999999993 966.1570300000001 C 311.75812999999994 966.3048000000001 301.83347999999995 956.6197400000001 301.6857099999999 944.52484 z M 301.1498 1008.28913 C 301.01513 997.26695 309.84121000000005 988.22255 320.86337000000003 988.08788 L 580.45262 984.91624 C 591.00313 984.78733 599.6605000000001 993.23572 599.78941 1003.7862200000001 L 599.83339 1007.38606 C 599.96264 1017.9644900000001 591.4919 1026.64479 580.91346 1026.77403 L 323.31712999999996 1029.9213200000002 C 311.22222999999997 1030.0690900000002 301.29758 1020.3840300000002 301.14980999999995 1008.2891300000001 z M 314.74468 1072.5458 C 314.61001 1061.5236200000002 323.43609000000004 1052.4792200000002 334.45825 1052.34455 L 567.92952 1049.4920200000001 C 578.48003 1049.3631100000002 587.1374000000001 1057.8115000000003 587.26631 1068.362 L 587.31029 1071.9618400000002 C 587.43954 1082.5402700000002 578.9688 1091.2205700000002 568.39036 1091.3498100000002 L 336.91198999999995 1094.1779900000001 C 324.81708999999995 1094.3257600000002 314.89243999999997 1084.6407000000002 314.7446699999999 1072.5458 z M 450.4867 1174.97559 C 411.82356 1174.97559 378.9846 1149.88686 367.37269 1115.11226 L 533.6007099999999 1115.11226 C 521.9888 1149.8868400000001 489.1498399999999 1174.97559 450.4866999999999 1174.97559 z M 370.42777 446.31526 L 437.42976 500.85933 C 437.42976 500.85933 392.1411 541.06181 354.07934 567.30177 C 316.0176 593.5417100000001 272.05297 617.50244 211.95002 623.15193 C 151.84707 628.80144 105.62831 605.54903 75.88744 585.84018 C 46.14655 566.13131 20.97229 528.02283 9.301469999999995 494.38317000000006 C -2.369350000000006 460.7435100000001 -2.5976800000000058 426.75495000000006 6.048599999999995 388.35747000000003 C 14.694869999999995 349.95999000000006 40.993269999999995 313.16476 75.88741999999999 283.99701000000005 C 110.78156999999999 254.82926000000003 155.81261 246.77151000000003 186.93412 243.96936000000005 C 218.05564 241.16721000000004 256.07801 244.61934000000005 311.31731 273.96790000000004 C 366.55661000000003 303.31644000000006 384.90119000000004 322.4588600000001 459.87051 382.59366000000006 C 534.83982 442.72848000000005 602.73641 497.86657 650.73306 521.07591 C 698.7297100000001 544.28525 739.09126 539.29503 771.69014 519.07745 C 804.28902 498.85987 815.7990500000001 465.55216 817.4293 436.38707999999997 C 819.05956 407.22200999999995 805.8863 376.64639999999997 782.7965 358.12219999999996 C 759.70671 339.59799999999996 733.3812800000001 330.84650999999997 695.4405300000001 332.66067999999996 C 657.4997800000001 334.47486 634.4983100000001 351.76965999999993 603.53061 372.26340999999996 C 572.5629200000001 392.75713999999994 539.6557 422.13971999999995 539.6557 422.13971999999995 L 473.41074000000003 369.03425999999996 C 473.41074000000003 369.03425999999996 515.26882 328.11395999999996 560.76671 298.46948 C 606.26462 268.82500999999996 651.91241 245.51031999999998 711.72128 243.96935999999997 C 771.5301499999999 242.42839999999995 822.7087799999999 270.90738 856.32112 303.56179999999995 C 889.9334799999999 336.21621999999996 905.0178 368.7505699999999 908.5908199999999 418.6735299999999 C 912.1638599999999 468.5965099999999 903.4959099999999 495.2774999999999 878.1224299999999 538.8981099999999 C 852.74894 582.5187199999998 812.7989999999999 607.4107699999998 755.0018899999999 619.4509599999999 C 697.2047799999999 631.4911599999999 637.1796699999999 613.99768 590.4686199999999 589.4039199999999 C 543.7575799999998 564.8101499999999 522.7310599999998 540.8566799999999 470.5947899999999 500.85931999999985 C 418.45851999999985 460.86195999999984 385.8275299999999 428.04283999999984 332.1751499999999 388.35746999999986 C 278.52278999999993 348.6720999999999 260.3582499999999 335.94370999999984 200.60505999999992 332.66067999999984 C 140.85184999999993 329.37762999999984 98.99162999999993 371.71975999999984 94.10097999999992 424.9398899999999 C 89.21032999999993 478.1600299999999 121.06958999999992 516.3387299999999 167.90135999999993 530.5330299999998 C 214.7331499999999 544.7273299999998 250.50814999999994 529.9738599999998 285.6520099999999 509.3884199999998 C 320.79588999999993 488.80296999999985 370.4276799999999 446.3152499999998 370.4276799999999 446.3152499999998 z M 24.23997 473.84647 C 20.48967 455.82178 18.274839999999998 444.18359 17.06105 444.15792 C 15.674960000000002 444.12861 7.704510000000001 488.25464 52.94711 546.93485 C 98.1897 605.61506 177.94072 604.18382 177.94072 604.18382 L 176.66852 596.8686799999999 C 176.66852 596.8686799999999 160.82454 594.4549099999999 146.75164 591.5012199999999 C 132.67872 588.5475299999998 103.50244 576.7780599999999 83.61232000000001 561.5664299999999 C 46.59044000000001 533.2527299999998 27.990300000000012 491.8711299999999 24.23998000000001 473.84645999999987 z M 506.71727 99.44027 C 502.75663 96.24959 501.17883 91.89241 501.56012999999996 88.80467999999999 C 501.94141999999994 85.71695 504.15165999999994 81.28961 508.43309999999997 79.65410999999999 C 512.71453 78.01861 522.96667 77.70759999999999 547.6642899999999 85.31303999999999 C 572.36191 92.91847999999999 582.2978199999999 97.30577999999998 610.0832899999999 112.93556999999998 C 637.86876 128.56536 642.3712199999999 133.12552 658.8061799999999 147.83218999999997 C 675.24114 162.53885999999997 674.73961 166.50229999999996 674.86988 169.66513999999998 C 675.0001599999999 172.82797999999997 674.0621699999999 175.66024 671.52872 178.02312999999998 C 668.99527 180.38600999999997 664.40715 181.82577999999998 660.35118 181.21380999999997 C 656.29522 180.60182999999998 647.10703 171.76226999999997 647.10703 171.76226999999997 C 647.10703 171.76226999999997 631.94191 154.75549999999998 606.54944 139.33389999999997 C 581.15697 123.91229999999997 564.08869 116.59015999999997 545.53716 110.07586999999997 C 526.98564 103.56156999999996 510.67789999999997 102.63095999999996 506.71725999999995 99.44027999999997 z M 111.04936 199.81103 C 130.07846999999998 168.44876 149.62809 124.78733999999999 216.68565 74.84106999999999 C 283.7432 24.89479999999999 371.91732 0.889649999999989 451.78922 0.02592999999998824 C 531.66112 -0.8378100000000117 605.25784 19.79280999999999 679.91021 74.84106999999999 C 754.56258 129.88932999999997 776.65525 172.86908 791.83277 199.81103 C 795.94814 207.11632 802.41742 220.44099 809.10372 238.33522 C 792.0754 230.46878999999998 773.6211699999999 224.7921 754.0641899999999 222.33231999999998 C 740.48367 197.79598 720.4124499999999 159.03270999999998 654.2888499999999 109.53496999999999 C 587.44364 59.49704999999999 521.5436699999999 40.74418999999999 450.0247799999999 41.52928999999999 C 378.5058899999999 42.31439999999999 299.5530399999999 64.13466999999999 239.5083799999999 109.53496999999999 C 179.4636999999999 154.93527999999998 161.9585899999999 194.62275 144.9195399999999 223.13053 C 144.4053399999999 223.99084 143.8697699999999 224.91281999999998 143.3152499999999 225.89489 C 126.2469699999999 229.53757000000002 107.8006899999999 235.35345 90.07348999999991 244.86199 C 97.67441999999991 224.53553 105.48269999999991 208.98552999999998 111.04933999999992 199.81104 z" stroke-linecap="round" />
</g>
</svg>